<svg width="64" height="64" xmlns="http://www.w3.org/2000/svg">

 <g>
  <title>LogOtter</title>
  <g stroke="null">
   <path stroke="null" fill="#a78e81" d="m3.84228,15.22677c-2.84703,0 -4.26964,1.42261 -2.84703,2.84703c2.84703,2.84703 5.69224,2.84703 7.11485,1.42261l-4.26783,-4.26964zm11.38449,-11.38449c0,-2.84703 1.42261,-4.26964 2.84703,-2.84703c2.84703,2.84703 2.84703,5.69224 1.42261,7.11485l-4.26964,-4.26783zm-8.53746,17.07673s15.46951,26.12279 27.03861,29.88564c6.05242,1.9674 10.30215,1.08415 14.23152,-2.84703s4.3547,-8.04878 2.84703,-14.23152c-2.51943,-10.32387 -29.88745,-27.0368 -29.88745,-27.0368l-14.22971,14.22971z"/>
   <path stroke="null" fill="#a78e81" d="m28.72526,48.13319c7.65783,9.70125 15.91476,14.13016 18.94097,11.79896c2.93933,-2.26242 -0.58642,-4.66601 -3.9348,-12.58629c-3.50403,-8.2895 -19.05137,-4.33841 -15.00617,0.78732zm19.40431,-19.51472c9.70125,7.65783 14.12292,16.0324 11.79353,19.05861c-2.26242,2.93933 -4.66601,-0.58642 -12.58629,-3.9348c-8.29131,-3.50403 -4.33298,-19.16902 0.79275,-15.12381z"/>
   <path stroke="null" fill="#846659" d="m30.3162,38.56226c1.26514,-2.32939 -1.65428,-6.08681 -4.53208,-5.99812c-2.12124,0.06516 -6.54653,3.50041 -10.64785,-1.35021c-0.37828,0.37828 -0.55022,0.89773 -0.56289,1.50044c2.0959,2.85427 4.47416,5.86781 6.96463,8.62434c2.99725,0.86696 7.08227,0.34751 8.77818,-2.77644zm2.24794,-12.77814c-0.08869,2.87599 3.67055,5.79722 5.99812,4.53208c3.09861,-1.68324 3.63254,-5.71758 2.79454,-8.70579c-2.79635,-2.48323 -5.87505,-4.89225 -8.77999,-7.02617c-0.54298,0.0362 -1.01356,0.20452 -1.36288,0.55384c4.84881,4.0995 1.41537,8.52479 1.35021,10.64604z"/>
   <path stroke="null" fill="#cab8ac" d="m23.67916,30.11167c2.87599,-0.08869 5.79722,3.67055 4.53208,5.99812c-2.02713,3.73028 -7.48408,3.77552 -10.38902,2.14115c-3.23978,-1.8226 -6.75468,-7.5239 -4.78909,-9.48949c4.0995,4.85062 8.52298,1.41718 10.64604,1.35021zm6.4307,-6.4307c-0.08869,2.87599 3.67055,5.79722 5.99812,4.53208c3.73028,-2.02713 3.77552,-7.48408 2.14115,-10.38902c-1.8226,-3.23978 -7.5239,-6.75468 -9.48949,-4.78909c4.84881,4.0995 1.41537,8.52479 1.35021,10.64604z"/>
   <path stroke="null" fill="#a78e81" d="m49.38205,43.6898c6.28771,6.28771 15.80254,18.35093 14.23152,19.92376c-1.57102,1.57102 -13.63605,-7.9438 -19.92376,-14.23152s-7.26508,-9.81347 -5.69224,-11.38449c1.57102,-1.57283 5.09678,-0.59547 11.38449,5.69224zm-27.03861,-38.42491c3.92937,3.92937 2.81264,8.57185 -2.84703,14.23152s-10.30215,6.7764 -14.23152,2.84703s-4.23525,-9.99627 1.42442,-15.65412s11.72295,-5.35379 15.65412,-1.42442z"/>
   <path stroke="null" fill="#cab8ac" d="m24.39771,7.32098c2.21355,2.21355 3.60358,9.36279 -2.05609,15.02246s-12.8071,4.26964 -15.02246,2.05609c-3.49317,-3.49317 2.21355,-9.17094 5.06058,-12.01797s8.52479,-8.55375 12.01797,-5.06058z"/>
   <g stroke="null" fill="#292f33">
    <path stroke="null" d="m16.64938,10.95713c1.57102,1.57102 1.57102,4.12122 0,5.69224s-4.12122,1.57102 -5.69224,0s-0.14841,-2.6968 1.42442,-4.26783s2.6968,-2.99544 4.26783,-1.42442z"/>
    <circle stroke="null" r="2.01265" cy="16.64938" cx="8.11192"/>
    <circle stroke="null" r="2.01265" cy="8.11192" cx="16.64938"/>
   </g>
   <path stroke="null" fill="#a78e81" d="m18.81768,18.35796c-0.77103,0 -1.48415,-0.1828 -2.04885,-0.55746c-0.34208,-0.22624 -0.43619,-0.68778 -0.20995,-1.03166s0.68778,-0.438 1.03166,-0.20995c0.81809,0.54117 2.4235,0.34027 3.65426,-0.45791c0.49954,-0.32398 1.6398,-1.2199 1.4208,-2.5321c-0.06697,-0.40543 0.20633,-0.78913 0.61176,-0.8561c0.40724,-0.06516 0.78913,0.20633 0.8561,0.61176c0.25158,1.51311 -0.52669,3.01897 -2.08142,4.02529c-1.02261,0.66606 -2.18097,1.00813 -3.23435,1.00813z"/>
   <path stroke="null" fill="#a78e81" d="m13.88742,24.18233c-0.18642,0 -0.37466,-0.01629 -0.56108,-0.04706c-0.40543,-0.06878 -0.68054,-0.45067 -0.61176,-0.8561s0.45429,-0.67873 0.8561,-0.61176c1.30677,0.219 2.20812,-0.92126 2.5321,-1.42261c0.79818,-1.23257 1.00089,-2.83798 0.45791,-3.65426c-0.22624,-0.34208 -0.13394,-0.80361 0.20995,-1.03166c0.34208,-0.22805 0.80542,-0.13394 1.03166,0.20995c0.88506,1.33754 0.70044,3.50946 -0.45067,5.28501c-0.88325,1.36288 -2.14839,2.12848 -3.46421,2.12848z"/>
   <path stroke="null" fill="#846659" d="m45.9305,51.84718c-1.84794,-2.95743 -2.71671,-6.4488 -1.62532,-7.54019c1.10949,-1.10949 3.75199,-1.3484 7.57639,1.58912c-2.43979,-2.32758 -6.79992,-4.87777 -7.57639,-9.12931c0.22262,3.9167 -0.75836,8.37095 -7.46598,7.31757c3.76828,1.1113 9.0913,7.76281 9.0913,7.76281z"/>
   <g stroke="null" fill="#67757f">
    <path stroke="null" d="m4.83232,28.0031c-0.05068,0 -0.10317,-0.00362 -0.15565,-0.01448c-0.47782,-0.08507 -0.79637,-0.54298 -0.7113,-1.0208c0.73664,-4.10674 3.24521,-7.04246 6.70943,-7.8515c0.47239,-0.1086 0.9466,0.18461 1.057,0.65701c0.11041,0.4742 -0.1828,0.9466 -0.65701,1.057c-2.75834,0.64434 -4.76737,3.05698 -5.37732,6.45061c-0.07602,0.42171 -0.44524,0.72216 -0.86515,0.72216z"/>
    <path stroke="null" d="m8.71282,28.44472c-0.45791,0 -0.84343,-0.35294 -0.87601,-0.81628c-0.14298,-1.95111 0.8923,-4.52122 2.87056,-5.44428c0.44162,-0.20452 0.9647,-0.01629 1.16922,0.42533c0.20452,0.43981 0.01629,0.9647 -0.42533,1.16922c-1.21447,0.56651 -1.95473,2.41626 -1.86061,3.72123c0.0362,0.48506 -0.3276,0.90678 -0.81266,0.94117c-0.02353,0.00362 -0.04344,0.00362 -0.06516,0.00362zm11.23607,-16.66769c-0.06697,0 -0.13394,-0.00724 -0.2009,-0.02353c-0.4742,-0.11041 -0.76741,-0.58461 -0.65701,-1.057c0.81085,-3.46421 3.74656,-5.97097 7.8515,-6.70943c0.47782,-0.08507 0.93574,0.23348 1.0208,0.7113s-0.23167,0.93574 -0.7113,1.0208c-3.39363,0.60995 -5.80446,2.61898 -6.45061,5.37732c-0.0905,0.40724 -0.45248,0.68054 -0.85248,0.68054z"/>
    <path stroke="null" d="m22.96062,11.97975c-0.12489,0 -0.25158,-0.02715 -0.37104,-0.08326c-0.44162,-0.20452 -0.62986,-0.7294 -0.42533,-1.16922c0.92307,-1.97826 3.47326,-3.01173 5.44428,-2.87056c0.48506,0.03439 0.84886,0.45791 0.81266,0.94117c-0.03439,0.48325 -0.44886,0.84705 -0.94117,0.81266c-1.28867,-0.08688 -3.15291,0.64615 -3.72123,1.86061c-0.15022,0.32036 -0.46696,0.50859 -0.79818,0.50859z"/>
   </g>
  </g>
  <g stroke="null" id="svg_1" fill-rule="evenodd" fill="none">
   <path stroke="null" id="svg_2" fill="#bd7575" d="m55.0366,59.50878l0,-36.53397l-26.30446,0l0,36.53397c0,2.42126 5.88845,4.38408 13.15223,4.38408s13.15223,-1.96282 13.15223,-4.38408z"/>
   <g stroke="#ab5f5f" id="svg_3" stroke-width="2" stroke-linecap="square">
    <path stroke="null" id="svg_4" d="m33.8469,31.74296l0,7.30679"/>
    <path stroke="null" id="svg_5" d="m50.65253,25.89753l0,4.38408"/>
    <path stroke="null" id="svg_6" d="m30.92418,25.16685l0,4.38408"/>
    <path stroke="null" id="svg_7" d="m41.88437,24.43617l0,4.38408"/>
    <path stroke="null" id="svg_8" d="m51.38321,52.20199l0,7.30679"/>
    <path stroke="null" id="svg_9" d="m44.80709,35.39636l0,7.30679"/>
    <path stroke="null" id="svg_10" d="m40.42301,37.5884l0,2.92272"/>
    <path stroke="null" id="svg_11" d="m34.57758,55.1247l0,2.92272"/>
    <path stroke="null" id="svg_12" d="m36.76962,39.04976l0,13.15223"/>
    <path stroke="null" id="svg_13" d="m40.42301,43.43383l0,15.34427"/>
   </g>
   <ellipse stroke="null" id="svg_14" ry="4.38408" rx="13.15223" fill="#ab5f5f" cy="22.97481" cx="41.88437"/>
   <path stroke="null" id="svg_15" fill="#bd7575" d="m58.21171,33.2054l5.12266,5.12052l-9.70385,9.80073l-5.16668,-5.16668l9.74787,-9.75457z"/>
   <ellipse stroke="null" id="svg_16" transform="matrix(0.516668 -0.516668 0.516668 0.516668 2.03897 52.0088)" ry="5" rx="2" fill="#ab5f5f" cy="41.50428" cx="72.31409"/>
  </g>
 </g>
</svg>